<svg width="15" height="17" viewBox="0 0 15 17" fill="none" xmlns="http://www.w3.org/2000/svg">
<path d="M6.61178 13.3197L11.3826 8.54883L10.5701 7.73633L6.61178 11.6947L4.46594 9.54883L3.65344 10.3613L6.61178 13.3197ZM2.15344 16.9655C1.82011 16.9655 1.52844 16.8405 1.27844 16.5905C1.02844 16.3405 0.903442 16.0488 0.903442 15.7155V1.54883C0.903442 1.21549 1.02844 0.923828 1.27844 0.673828C1.52844 0.423828 1.82011 0.298828 2.15344 0.298828H9.67428L14.2368 4.86133V15.7155C14.2368 16.0488 14.1118 16.3405 13.8618 16.5905C13.6118 16.8405 13.3201 16.9655 12.9868 16.9655H2.15344ZM9.04928 5.42383V1.54883H2.15344V15.7155H12.9868V5.42383H9.04928Z" fill="#198754"/>
</svg>
