<svg width="30" height="30" viewBox="0 0 30 30" fill="none" xmlns="http://www.w3.org/2000/svg">
<circle cx="15" cy="15" r="15" fill="#198754" fill-opacity="0.1"/>
<path d="M14.0413 19.1875L18.8122 14.4166L17.9997 13.6041L14.0413 17.5625L11.8955 15.4166L11.083 16.2291L14.0413 19.1875ZM9.58301 22.8333C9.24967 22.8333 8.95801 22.7083 8.70801 22.4583C8.45801 22.2083 8.33301 21.9166 8.33301 21.5833V7.41663C8.33301 7.08329 8.45801 6.79163 8.70801 6.54163C8.95801 6.29163 9.24967 6.16663 9.58301 6.16663H17.1038L21.6663 10.7291V21.5833C21.6663 21.9166 21.5413 22.2083 21.2913 22.4583C21.0413 22.7083 20.7497 22.8333 20.4163 22.8333H9.58301ZM16.4788 11.2916V7.41663H9.58301V21.5833H20.4163V11.2916H16.4788Z" fill="#198754"/>
</svg>
