<svg width="30" height="30" viewBox="0 0 30 30" fill="none" xmlns="http://www.w3.org/2000/svg">
<path d="M9.67614 21.6667C9.39219 21.6667 9.14374 21.5626 8.93077 21.3542C8.71781 21.1459 8.61133 20.9028 8.61133 20.6251V9.86117C8.61133 9.58339 8.71781 9.34033 8.93077 9.132C9.14374 8.92367 9.39219 8.8195 9.67614 8.8195H10.8297V7.77783H11.9832V8.8195H18.0172V7.77783H19.1707V8.8195H20.3243C20.6082 8.8195 20.8567 8.92367 21.0697 9.132C21.2826 9.34033 21.3891 9.58339 21.3891 9.86117V20.6251C21.3891 20.9028 21.2826 21.1459 21.0697 21.3542C20.8567 21.5626 20.6082 21.6667 20.3243 21.6667H9.67614ZM9.67614 20.6251H20.3243V13.1598H9.67614V20.6251ZM9.67614 12.1181H20.3243V9.86117H9.67614V12.1181ZM15.0002 16.1112C14.7991 16.1112 14.6305 16.0446 14.4944 15.9115C14.3584 15.7784 14.2903 15.6135 14.2903 15.4167C14.2903 15.22 14.3584 15.055 14.4944 14.9219C14.6305 14.7888 14.7991 14.7223 15.0002 14.7223C15.2013 14.7223 15.3699 14.7888 15.506 14.9219C15.6421 15.055 15.7101 15.22 15.7101 15.4167C15.7101 15.6135 15.6421 15.7784 15.506 15.9115C15.3699 16.0446 15.2013 16.1112 15.0002 16.1112ZM12.1607 16.1112C11.9596 16.1112 11.791 16.0446 11.6549 15.9115C11.5189 15.7784 11.4508 15.6135 11.4508 15.4167C11.4508 15.22 11.5189 15.055 11.6549 14.9219C11.791 14.7888 11.9596 14.7223 12.1607 14.7223C12.3618 14.7223 12.5304 14.7888 12.6665 14.9219C12.8026 15.055 12.8706 15.22 12.8706 15.4167C12.8706 15.6135 12.8026 15.7784 12.6665 15.9115C12.5304 16.0446 12.3618 16.1112 12.1607 16.1112ZM17.8397 16.1112C17.6386 16.1112 17.47 16.0446 17.3339 15.9115C17.1979 15.7784 17.1298 15.6135 17.1298 15.4167C17.1298 15.22 17.1979 15.055 17.3339 14.9219C17.47 14.7888 17.6386 14.7223 17.8397 14.7223C18.0409 14.7223 18.2095 14.7888 18.3455 14.9219C18.4816 15.055 18.5496 15.22 18.5496 15.4167C18.5496 15.6135 18.4816 15.7784 18.3455 15.9115C18.2095 16.0446 18.0409 16.1112 17.8397 16.1112ZM15.0002 18.8889C14.7991 18.8889 14.6305 18.8224 14.4944 18.6893C14.3584 18.5562 14.2903 18.3913 14.2903 18.1945C14.2903 17.9977 14.3584 17.8328 14.4944 17.6997C14.6305 17.5666 14.7991 17.5001 15.0002 17.5001C15.2013 17.5001 15.3699 17.5666 15.506 17.6997C15.6421 17.8328 15.7101 17.9977 15.7101 18.1945C15.7101 18.3913 15.6421 18.5562 15.506 18.6893C15.3699 18.8224 15.2013 18.8889 15.0002 18.8889ZM12.1607 18.8889C11.9596 18.8889 11.791 18.8224 11.6549 18.6893C11.5189 18.5562 11.4508 18.3913 11.4508 18.1945C11.4508 17.9977 11.5189 17.8328 11.6549 17.6997C11.791 17.5666 11.9596 17.5001 12.1607 17.5001C12.3618 17.5001 12.5304 17.5666 12.6665 17.6997C12.8026 17.8328 12.8706 17.9977 12.8706 18.1945C12.8706 18.3913 12.8026 18.5562 12.6665 18.6893C12.5304 18.8224 12.3618 18.8889 12.1607 18.8889ZM17.8397 18.8889C17.6386 18.8889 17.47 18.8224 17.3339 18.6893C17.1979 18.5562 17.1298 18.3913 17.1298 18.1945C17.1298 17.9977 17.1979 17.8328 17.3339 17.6997C17.47 17.5666 17.6386 17.5001 17.8397 17.5001C18.0409 17.5001 18.2095 17.5666 18.3455 17.6997C18.4816 17.8328 18.5496 17.9977 18.5496 18.1945C18.5496 18.3913 18.4816 18.5562 18.3455 18.6893C18.2095 18.8224 18.0409 18.8889 17.8397 18.8889Z" fill="#E3A008"/>
<circle cx="15" cy="15" r="15" fill="#E3A008" fill-opacity="0.1"/>
</svg>
