<svg width="40" height="40" viewBox="0 0 40 40" fill="none" xmlns="http://www.w3.org/2000/svg">
<rect width="40" height="40" rx="20" fill="#F9F9F9"/>
<path d="M12.5 30C12.1 30 11.75 29.85 11.45 29.55C11.15 29.25 11 28.9 11 28.5V13C11 12.6 11.15 12.25 11.45 11.95C11.75 11.65 12.1 11.5 12.5 11.5H14.125V10H15.75V11.5H24.25V10H25.875V11.5H27.5C27.9 11.5 28.25 11.65 28.55 11.95C28.85 12.25 29 12.6 29 13V28.5C29 28.9 28.85 29.25 28.55 29.55C28.25 29.85 27.9 30 27.5 30H12.5ZM12.5 28.5H27.5V17.75H12.5V28.5ZM12.5 16.25H27.5V13H12.5V16.25ZM20 22C19.7167 22 19.4792 21.9042 19.2875 21.7125C19.0958 21.5208 19 21.2833 19 21C19 20.7167 19.0958 20.4792 19.2875 20.2875C19.4792 20.0958 19.7167 20 20 20C20.2833 20 20.5208 20.0958 20.7125 20.2875C20.9042 20.4792 21 20.7167 21 21C21 21.2833 20.9042 21.5208 20.7125 21.7125C20.5208 21.9042 20.2833 22 20 22ZM16 22C15.7167 22 15.4792 21.9042 15.2875 21.7125C15.0958 21.5208 15 21.2833 15 21C15 20.7167 15.0958 20.4792 15.2875 20.2875C15.4792 20.0958 15.7167 20 16 20C16.2833 20 16.5208 20.0958 16.7125 20.2875C16.9042 20.4792 17 20.7167 17 21C17 21.2833 16.9042 21.5208 16.7125 21.7125C16.5208 21.9042 16.2833 22 16 22ZM24 22C23.7167 22 23.4792 21.9042 23.2875 21.7125C23.0958 21.5208 23 21.2833 23 21C23 20.7167 23.0958 20.4792 23.2875 20.2875C23.4792 20.0958 23.7167 20 24 20C24.2833 20 24.5208 20.0958 24.7125 20.2875C24.9042 20.4792 25 20.7167 25 21C25 21.2833 24.9042 21.5208 24.7125 21.7125C24.5208 21.9042 24.2833 22 24 22ZM20 26C19.7167 26 19.4792 25.9042 19.2875 25.7125C19.0958 25.5208 19 25.2833 19 25C19 24.7167 19.0958 24.4792 19.2875 24.2875C19.4792 24.0958 19.7167 24 20 24C20.2833 24 20.5208 24.0958 20.7125 24.2875C20.9042 24.4792 21 24.7167 21 25C21 25.2833 20.9042 25.5208 20.7125 25.7125C20.5208 25.9042 20.2833 26 20 26ZM16 26C15.7167 26 15.4792 25.9042 15.2875 25.7125C15.0958 25.5208 15 25.2833 15 25C15 24.7167 15.0958 24.4792 15.2875 24.2875C15.4792 24.0958 15.7167 24 16 24C16.2833 24 16.5208 24.0958 16.7125 24.2875C16.9042 24.4792 17 24.7167 17 25C17 25.2833 16.9042 25.5208 16.7125 25.7125C16.5208 25.9042 16.2833 26 16 26ZM24 26C23.7167 26 23.4792 25.9042 23.2875 25.7125C23.0958 25.5208 23 25.2833 23 25C23 24.7167 23.0958 24.4792 23.2875 24.2875C23.4792 24.0958 23.7167 24 24 24C24.2833 24 24.5208 24.0958 24.7125 24.2875C24.9042 24.4792 25 24.7167 25 25C25 25.2833 24.9042 25.5208 24.7125 25.7125C24.5208 25.9042 24.2833 26 24 26Z" fill="#5860DD"/>
</svg>
