<svg width="18" height="18" viewBox="0 0 18 18" fill="none" xmlns="http://www.w3.org/2000/svg">
<path d="M14.9063 15.75C13.3813 15.75 11.8656 15.375 10.3594 14.625C8.85313 13.875 7.5 12.9 6.3 11.7C5.1 10.5 4.125 9.14688 3.375 7.64062C2.625 6.13438 2.25 4.61875 2.25 3.09375C2.25 2.85268 2.33036 2.65178 2.49107 2.49107C2.65178 2.33036 2.85268 2.25 3.09375 2.25H5.71875C5.88889 2.25 6.0408 2.30937 6.17449 2.42813C6.30816 2.54688 6.39375 2.70625 6.43125 2.90625L6.9375 5.26875C6.9625 5.44375 6.95938 5.60313 6.92813 5.74688C6.89688 5.89063 6.83125 6.0125 6.73125 6.1125L4.85625 8.00625C5.55625 9.16875 6.34063 10.1813 7.20938 11.0438C8.07812 11.9062 9.0625 12.6375 10.1625 13.2375L11.9438 11.4C12.0688 11.2625 12.2125 11.1656 12.375 11.1094C12.5375 11.0531 12.7 11.0438 12.8625 11.0813L15.0938 11.5688C15.2852 11.6109 15.4424 11.7059 15.5654 11.8535C15.6885 12.0012 15.75 12.175 15.75 12.375V14.9063C15.75 15.1473 15.6696 15.3482 15.5089 15.5089C15.3482 15.6696 15.1473 15.75 14.9063 15.75ZM4.29375 6.975L5.8125 5.4375L5.38125 3.375H3.375C3.375 3.8625 3.45 4.39688 3.6 4.97813C3.75 5.55938 3.98125 6.225 4.29375 6.975ZM11.2125 13.7812C11.725 14.0188 12.2812 14.2125 12.8813 14.3625C13.4813 14.5125 14.0625 14.6 14.625 14.625V12.6188L12.6938 12.225L11.2125 13.7812Z" fill="#656565"/>
</svg>
