<svg width="18" height="18" viewBox="0 0 18 18" fill="none" xmlns="http://www.w3.org/2000/svg">
<path d="M8.99063 13.0125C9.89688 13.0125 10.6563 12.7063 11.2688 12.0938C11.8813 11.4813 12.1875 10.7219 12.1875 9.81563C12.1875 8.90938 11.8813 8.15313 11.2688 7.54688C10.6563 6.94063 9.89688 6.6375 8.99063 6.6375C8.08438 6.6375 7.32813 6.94063 6.72188 7.54688C6.11563 8.15313 5.8125 8.90938 5.8125 9.81563C5.8125 10.7219 6.11563 11.4813 6.72188 12.0938C7.32813 12.7063 8.08438 13.0125 8.99063 13.0125ZM8.99063 11.8875C8.39688 11.8875 7.90625 11.6906 7.51875 11.2969C7.13125 10.9031 6.9375 10.4094 6.9375 9.81563C6.9375 9.22188 7.13125 8.73125 7.51875 8.34375C7.90625 7.95625 8.39688 7.7625 8.99063 7.7625C9.58438 7.7625 10.0781 7.95625 10.4719 8.34375C10.8656 8.73125 11.0625 9.22188 11.0625 9.81563C11.0625 10.4094 10.8656 10.9031 10.4719 11.2969C10.0781 11.6906 9.58438 11.8875 8.99063 11.8875ZM2.625 15.75C2.325 15.75 2.0625 15.6375 1.8375 15.4125C1.6125 15.1875 1.5 14.925 1.5 14.625V5.00625C1.5 4.71875 1.6125 4.45938 1.8375 4.22813C2.0625 3.99688 2.325 3.88125 2.625 3.88125H5.38125L6.75 2.25H11.25L12.6188 3.88125H15.375C15.6625 3.88125 15.9219 3.99688 16.1531 4.22813C16.3844 4.45938 16.5 4.71875 16.5 5.00625V14.625C16.5 14.925 16.3844 15.1875 16.1531 15.4125C15.9219 15.6375 15.6625 15.75 15.375 15.75H2.625ZM15.375 14.625V5.00625H12.0938L10.725 3.375H7.275L5.90625 5.00625H2.625V14.625H15.375Z" fill="#030837"/>
</svg>
