<svg width="21" height="19" viewBox="0 0 21 19" fill="none" xmlns="http://www.w3.org/2000/svg">
<path d="M10.4871 15.0729C11.7458 15.0729 12.8005 14.6476 13.6512 13.7969C14.5019 12.9462 14.9272 11.8915 14.9272 10.6328C14.9272 9.37413 14.5019 8.32378 13.6512 7.48177C12.8005 6.63976 11.7458 6.21875 10.4871 6.21875C9.22846 6.21875 8.17811 6.63976 7.3361 7.48177C6.49409 8.32378 6.07308 9.37413 6.07308 10.6328C6.07308 11.8915 6.49409 12.9462 7.3361 13.7969C8.17811 14.6476 9.22846 15.0729 10.4871 15.0729ZM10.4871 13.5104C9.66249 13.5104 8.98106 13.237 8.44287 12.6901C7.90468 12.1432 7.63558 11.4575 7.63558 10.6328C7.63558 9.80816 7.90468 9.12674 8.44287 8.58854C8.98106 8.05035 9.66249 7.78125 10.4871 7.78125C11.3118 7.78125 11.9976 8.05035 12.5444 8.58854C13.0913 9.12674 13.3647 9.80816 13.3647 10.6328C13.3647 11.4575 13.0913 12.1432 12.5444 12.6901C11.9976 13.237 11.3118 13.5104 10.4871 13.5104ZM1.646 18.875C1.22933 18.875 0.864746 18.7188 0.552246 18.4062C0.239746 18.0938 0.0834961 17.7292 0.0834961 17.3125V3.95312C0.0834961 3.55382 0.239746 3.19358 0.552246 2.8724C0.864746 2.55122 1.22933 2.39062 1.646 2.39062H5.47412L7.37516 0.125H13.6252L15.5262 2.39062H19.3543C19.7536 2.39062 20.1139 2.55122 20.4351 2.8724C20.7562 3.19358 20.9168 3.55382 20.9168 3.95312V17.3125C20.9168 17.7292 20.7562 18.0938 20.4351 18.4062C20.1139 18.7188 19.7536 18.875 19.3543 18.875H1.646ZM19.3543 17.3125V3.95312H14.797L12.896 1.6875H8.10433L6.20329 3.95312H1.646V17.3125H19.3543Z" fill="black"/>
</svg>
