<svg width="16" height="16" viewBox="0 0 16 16" fill="none" xmlns="http://www.w3.org/2000/svg">
<path d="M10.4497 11.2167L11.1997 10.4667L8.54967 7.80004V4.45004H7.54967V8.20004L10.4497 11.2167ZM7.99967 14.6667C7.08856 14.6667 6.22745 14.4917 5.41634 14.1417C4.60523 13.7917 3.8969 13.3139 3.29134 12.7084C2.68579 12.1028 2.20801 11.3945 1.85801 10.5834C1.50801 9.77226 1.33301 8.91115 1.33301 8.00004C1.33301 7.08893 1.50801 6.22782 1.85801 5.41671C2.20801 4.6056 2.68579 3.89726 3.29134 3.29171C3.8969 2.68615 4.60523 2.20837 5.41634 1.85837C6.22745 1.50837 7.08856 1.33337 7.99967 1.33337C8.91079 1.33337 9.7719 1.50837 10.583 1.85837C11.3941 2.20837 12.1025 2.68615 12.708 3.29171C13.3136 3.89726 13.7913 4.6056 14.1413 5.41671C14.4913 6.22782 14.6663 7.08893 14.6663 8.00004C14.6663 8.91115 14.4913 9.77226 14.1413 10.5834C13.7913 11.3945 13.3136 12.1028 12.708 12.7084C12.1025 13.3139 11.3941 13.7917 10.583 14.1417C9.7719 14.4917 8.91079 14.6667 7.99967 14.6667ZM7.99967 13.6667C9.55523 13.6667 10.8886 13.1112 11.9997 12C13.1108 10.8889 13.6663 9.5556 13.6663 8.00004C13.6663 6.44448 13.1108 5.11115 11.9997 4.00004C10.8886 2.88893 9.55523 2.33337 7.99967 2.33337C6.44412 2.33337 5.11079 2.88893 3.99967 4.00004C2.88856 5.11115 2.33301 6.44448 2.33301 8.00004C2.33301 9.5556 2.88856 10.8889 3.99967 12C5.11079 13.1112 6.44412 13.6667 7.99967 13.6667Z" fill="#656565"/>
</svg>
