<svg width="50" height="50" viewBox="0 0 50 50" fill="none" xmlns="http://www.w3.org/2000/svg">
<circle cx="25" cy="25" r="25" fill="white"/>
<path fill-rule="evenodd" clip-rule="evenodd" d="M18.2929 18.2929C18.6834 17.9024 19.3166 17.9024 19.7071 18.2929L31.7071 30.2929C32.0976 30.6834 32.0976 31.3166 31.7071 31.7071C31.3166 32.0976 30.6834 32.0976 30.2929 31.7071L18.2929 19.7071C17.9024 19.3166 17.9024 18.6834 18.2929 18.2929Z" fill="#100C09"/>
<path fill-rule="evenodd" clip-rule="evenodd" d="M31.7071 18.2929C31.3166 17.9024 30.6834 17.9024 30.2929 18.2929L18.2929 30.2929C17.9024 30.6834 17.9024 31.3166 18.2929 31.7071C18.6834 32.0976 19.3166 32.0976 19.7071 31.7071L31.7071 19.7071C32.0976 19.3166 32.0976 18.6834 31.7071 18.2929Z" fill="#100C09"/>
</svg>
