<svg width="30" height="31" viewBox="0 0 30 31" fill="none" xmlns="http://www.w3.org/2000/svg">
<rect y="0.5" width="30" height="30" rx="15" fill="#F1F2FF"/>
<path d="M11.6459 20.2917H18.3542V19.0417H11.6459V20.2917ZM11.6459 16.7501H18.3542V15.5001H11.6459V16.7501ZM9.58337 23.8334C9.25004 23.8334 8.95837 23.7084 8.70837 23.4584C8.45837 23.2084 8.33337 22.9167 8.33337 22.5834V8.41675C8.33337 8.08341 8.45837 7.79175 8.70837 7.54175C8.95837 7.29175 9.25004 7.16675 9.58337 7.16675H17.1042L21.6667 11.7292V22.5834C21.6667 22.9167 21.5417 23.2084 21.2917 23.4584C21.0417 23.7084 20.75 23.8334 20.4167 23.8334H9.58337ZM16.4792 12.2917V8.41675H9.58337V22.5834H20.4167V12.2917H16.4792Z" fill="#5860DD"/>
</svg>
