<svg width="17" height="21" viewBox="0 0 17 21" fill="none" xmlns="http://www.w3.org/2000/svg">
<path d="M4.30713 16.4896H12.6925V14.9271H4.30713V16.4896ZM4.30713 12.0625H12.6925V10.5H4.30713V12.0625ZM1.729 20.9167C1.31234 20.9167 0.947754 20.7604 0.635254 20.4479C0.322754 20.1354 0.166504 19.7708 0.166504 19.3542V1.64583C0.166504 1.22916 0.322754 0.864578 0.635254 0.552078C0.947754 0.239578 1.31234 0.0833282 1.729 0.0833282H11.13L16.8332 5.78645V19.3542C16.8332 19.7708 16.6769 20.1354 16.3644 20.4479C16.0519 20.7604 15.6873 20.9167 15.2707 20.9167H1.729ZM10.3488 6.48958V1.64583H1.729V19.3542H15.2707V6.48958H10.3488Z" fill="black"/>
</svg>
