<svg width="18" height="18" viewBox="0 0 18 18" fill="none" xmlns="http://www.w3.org/2000/svg">
<path fill-rule="evenodd" clip-rule="evenodd" d="M9.20019 3C5.88649 3 3.2002 5.68629 3.2002 9C3.2002 12.3137 5.88649 15 9.20019 15C12.5139 15 15.2002 12.3137 15.2002 9C15.2002 5.68629 12.5139 3 9.20019 3ZM1.7002 9C1.7002 4.85786 5.05806 1.5 9.20019 1.5C13.3423 1.5 16.7002 4.85786 16.7002 9C16.7002 13.1421 13.3423 16.5 9.20019 16.5C5.05806 16.5 1.7002 13.1421 1.7002 9Z" fill="#E52C2C"/>
<path fill-rule="evenodd" clip-rule="evenodd" d="M9.19922 5.25C9.61343 5.25 9.94922 5.58579 9.94922 6V9C9.94922 9.41421 9.61343 9.75 9.19922 9.75C8.78501 9.75 8.44922 9.41421 8.44922 9V6C8.44922 5.58579 8.78501 5.25 9.19922 5.25ZM8.44922 12C8.44922 11.5858 8.78501 11.25 9.19922 11.25H9.20672C9.62093 11.25 9.95672 11.5858 9.95672 12C9.95672 12.4142 9.62093 12.75 9.20672 12.75H9.19922C8.78501 12.75 8.44922 12.4142 8.44922 12Z" fill="#E52C2C"/>
</svg>
