<svg width="18" height="18" viewBox="0 0 18 18" fill="none" xmlns="http://www.w3.org/2000/svg">
<path d="M9.00432 11.5456C9.8123 11.5456 10.5004 11.2602 11.0687 10.6893C11.6369 10.1185 11.9211 9.42904 11.9211 8.62108C11.9211 7.81311 11.6356 7.12499 11.0648 6.55672C10.4939 5.98846 9.80448 5.70433 8.99652 5.70433C8.18855 5.70433 7.50043 5.98976 6.93217 6.56063C6.3639 7.1315 6.07977 7.82092 6.07977 8.62888C6.07977 9.43686 6.3652 10.125 6.93607 10.6932C7.50694 11.2615 8.19636 11.5456 9.00432 11.5456ZM8.99474 10.7033C8.41584 10.7033 7.92567 10.5007 7.52422 10.0955C7.12278 9.69027 6.92206 9.1982 6.92206 8.6193C6.92206 8.0404 7.12467 7.55023 7.5299 7.14878C7.93513 6.74734 8.4272 6.54662 9.0061 6.54662C9.585 6.54662 10.0752 6.74923 10.4766 7.15446C10.8781 7.55969 11.0788 8.05176 11.0788 8.63066C11.0788 9.20956 10.8762 9.69974 10.4709 10.1012C10.0657 10.5026 9.57364 10.7033 8.99474 10.7033ZM9.00145 13.875C7.28154 13.875 5.72015 13.3935 4.31727 12.4305C2.91438 11.4675 1.86006 10.199 1.1543 8.62498C1.86006 7.05096 2.91404 5.78245 4.31624 4.81946C5.71843 3.85649 7.27948 3.375 8.99939 3.375C10.7193 3.375 12.2807 3.85649 13.6836 4.81946C15.0865 5.78245 16.1408 7.05096 16.8465 8.62498C16.1408 10.199 15.0868 11.4675 13.6846 12.4305C12.2824 13.3935 10.7214 13.875 9.00145 13.875ZM8.99725 13.024C10.4878 13.024 11.8555 12.6255 13.1002 11.8283C14.3449 11.0312 15.2937 9.96344 15.9466 8.62498C15.2937 7.28652 14.3459 6.21873 13.1033 5.42162C11.8607 4.62451 10.4942 4.22595 9.00359 4.22595C7.51302 4.22595 6.14537 4.62451 4.90066 5.42162C3.65596 6.21873 2.70332 7.28652 2.04275 8.62498C2.70332 9.96344 3.65491 11.0312 4.89751 11.8283C6.14011 12.6255 7.50669 13.024 8.99725 13.024Z" fill="black"/>
</svg>
