<svg width="15" height="15" viewBox="0 0 15 15" fill="none" xmlns="http://www.w3.org/2000/svg">
<path d="M1.25 6.28125V5.65625C1.25 4.52083 1.79688 3.60677 2.89063 2.91406C3.98438 2.22135 5.52083 1.875 7.5 1.875C9.47917 1.875 11.0156 2.22135 12.1094 2.91406C13.2031 3.60677 13.75 4.52083 13.75 5.65625V6.28125H1.25ZM2.21875 5.34375H12.7813C12.75 4.625 12.2474 4.02344 11.2734 3.53906C10.2995 3.05469 9.04167 2.8125 7.5 2.8125C5.95833 2.8125 4.69531 3.05469 3.71094 3.53906C2.72656 4.02344 2.22917 4.625 2.21875 5.34375ZM1.25 9.03125V8.09375C1.59375 8.09375 1.89323 7.97917 2.14844 7.75C2.40365 7.52083 2.8125 7.40625 3.375 7.40625C3.9375 7.40625 4.3099 7.52083 4.49219 7.75C4.67448 7.97917 4.97917 8.09375 5.40625 8.09375C5.83333 8.09375 6.14844 7.97917 6.35156 7.75C6.55469 7.52083 6.9375 7.40625 7.5 7.40625C8.0625 7.40625 8.44531 7.52083 8.64844 7.75C8.85156 7.97917 9.16667 8.09375 9.59375 8.09375C10.0208 8.09375 10.3255 7.97917 10.5078 7.75C10.6901 7.52083 11.0625 7.40625 11.625 7.40625C12.1875 7.40625 12.5964 7.52083 12.8516 7.75C13.1068 7.97917 13.4063 8.09375 13.75 8.09375V9.03125C13.1875 9.03125 12.7995 8.91667 12.5859 8.6875C12.3724 8.45833 12.0521 8.34375 11.625 8.34375C11.1979 8.34375 10.8932 8.45833 10.7109 8.6875C10.5286 8.91667 10.1563 9.03125 9.59375 9.03125C9.03125 9.03125 8.64844 8.91667 8.44531 8.6875C8.24219 8.45833 7.92708 8.34375 7.5 8.34375C7.07292 8.34375 6.75781 8.45833 6.55469 8.6875C6.35156 8.91667 5.96875 9.03125 5.40625 9.03125C4.84375 9.03125 4.47135 8.91667 4.28906 8.6875C4.10677 8.45833 3.80208 8.34375 3.375 8.34375C2.94792 8.34375 2.62835 8.45833 2.4163 8.6875C2.20424 8.91667 1.81548 9.03125 1.25 9.03125ZM2.1875 13.125C1.9375 13.125 1.71875 13.0312 1.53125 12.8438C1.34375 12.6562 1.25 12.4375 1.25 12.1875V10.1875H13.75V12.1875C13.75 12.4375 13.6563 12.6562 13.4688 12.8438C13.2813 13.0312 13.0625 13.125 12.8125 13.125H2.1875ZM2.1875 12.1875H12.8125V11.125H2.1875V12.1875Z" fill="#030837"/>
</svg>
