<svg width="322" height="268" viewBox="0 0 322 268" fill="none" xmlns="http://www.w3.org/2000/svg">
<path fill-rule="evenodd" clip-rule="evenodd" d="M153 0.111562C180.141 -1.33744 195.474 11.3286 199 38.1116C197 62.1116 184 75.1116 160 77.1116C133.073 73.6086 120.573 58.2746 122.5 31.1116C126.849 14.9306 137.016 4.59656 153 0.111562Z" fill="white"/>
<path fill-rule="evenodd" clip-rule="evenodd" d="M132 139.112C132.176 142.339 132.843 145.339 134 148.112C136.452 161.107 138.952 174.107 141.5 187.112C152.908 199.347 163.908 199.013 174.5 186.112C175.443 182.116 176.276 178.116 177 174.112C178.268 171.707 178.935 169.04 179 166.112C179.871 163.609 180.537 160.942 181 158.112C185.442 137.789 189.775 117.456 194 97.1117C195.268 94.7067 195.935 92.0397 196 89.1117C197.476 79.3447 203.143 73.5107 213 71.6117C248.998 71.1117 284.998 70.9447 321 71.1117C321.32 74.5097 320.987 77.8437 320 81.1117C312.2 85.7477 304.533 90.5807 297 95.6117C291.333 95.9447 285.667 96.2787 280 96.6117C283.257 97.6547 286.59 98.1547 290 98.1117C290.219 99.2867 289.886 100.287 289 101.112C256.922 124.018 231.422 152.684 212.5 187.112C203.3 212.396 205.633 236.396 219.5 259.112C219.997 261.758 220.164 264.425 220 267.112C208.662 267.279 197.328 267.112 186 266.612C179.528 256.129 176.028 244.629 175.5 232.112C164.725 220.596 153.725 220.262 142.5 231.112C139.762 239.994 137.429 248.994 135.5 258.112C134.13 260.662 132.963 263.329 132 266.112C121.683 267.278 111.349 267.444 101 266.612C100.011 264.792 99.011 262.959 98 261.112C106.847 250.064 111.181 237.398 111 223.112C110.147 210.281 107.313 197.947 102.5 186.112C85.352 151.797 61.185 123.464 30 101.112C31.895 99.1687 34.228 97.6687 37 96.6117C32.345 96.1127 27.679 95.9457 23 96.1117C15.83 90.6037 8.163 85.9367 0 82.1117C0 78.4447 0 74.7787 0 71.1117C37.339 70.7787 74.673 71.1117 112 72.1117C117.099 78.9807 120.599 86.6477 122.5 95.1117C126.629 109.549 129.796 124.216 132 139.112Z" fill="white"/>
</svg>
