<svg width="14" height="14" viewBox="0 0 14 14" fill="none" xmlns="http://www.w3.org/2000/svg">
<path d="M5.2875 11.4625C3.85 11.4625 2.60938 10.9531 1.56563 9.93438C0.521875 8.91563 0 7.70625 0 6.30625V1.375C0 1.075 0.1125 0.8125 0.3375 0.5875C0.5625 0.3625 0.825 0.25 1.125 0.25H11.0438C11.7188 0.25 12.2969 0.48125 12.7781 0.94375C13.2594 1.40625 13.5 1.975 13.5 2.65C13.5 3.325 13.2594 3.89375 12.7781 4.35625C12.2969 4.81875 11.7188 5.05 11.0438 5.05H10.575V6.30625C10.575 7.70625 10.0531 8.91563 9.00938 9.93438C7.96563 10.9531 6.725 11.4625 5.2875 11.4625ZM1.125 3.925H9.45V1.375H1.125V3.925ZM5.2875 10.3375C6.425 10.3375 7.40312 9.94063 8.22187 9.14688C9.04062 8.35313 9.45 7.40625 9.45 6.30625V5.05H1.125V6.30625C1.125 7.40625 1.53437 8.35313 2.35312 9.14688C3.17188 9.94063 4.15 10.3375 5.2875 10.3375ZM10.575 3.925H11.0438C11.4062 3.925 11.7188 3.80312 11.9813 3.55937C12.2438 3.31562 12.375 3.0125 12.375 2.65C12.375 2.2875 12.2438 1.98438 11.9813 1.74063C11.7188 1.49688 11.4062 1.375 11.0438 1.375H10.575V3.925ZM0 13.75V12.625H11.8875V13.75H0Z" fill="#656565"/>
</svg>
