<svg width="40" height="40" viewBox="0 0 40 40" fill="none" xmlns="http://www.w3.org/2000/svg">
<rect width="40" height="40" rx="20" fill="#F9F9F9"/>
<path d="M21.5628 21.5625C20.6948 21.5625 19.9569 21.2587 19.3493 20.6511C18.7416 20.0434 18.4378 19.3056 18.4378 18.4375C18.4378 17.5695 18.7416 16.8316 19.3493 16.224C19.9569 15.6163 20.6948 15.3125 21.5628 15.3125C22.4309 15.3125 23.1687 15.6163 23.7764 16.224C24.384 16.8316 24.6878 17.5695 24.6878 18.4375C24.6878 19.3056 24.384 20.0434 23.7764 20.6511C23.1687 21.2587 22.4309 21.5625 21.5628 21.5625ZM13.2295 25.2084C12.7998 25.2084 12.432 25.0554 12.126 24.7494C11.82 24.4434 11.667 24.0755 11.667 23.6459V13.2292C11.667 12.7995 11.82 12.4317 12.126 12.1257C12.432 11.8197 12.7998 11.6667 13.2295 11.6667H29.8962C30.3258 11.6667 30.6937 11.8197 30.9997 12.1257C31.3057 12.4317 31.4587 12.7995 31.4587 13.2292V23.6459C31.4587 24.0755 31.3057 24.4434 30.9997 24.7494C30.6937 25.0554 30.3258 25.2084 29.8962 25.2084H13.2295ZM15.8337 23.6459H27.292C27.292 22.9167 27.5437 22.3004 28.0472 21.7969C28.5507 21.2934 29.167 21.0417 29.8962 21.0417V15.8334C29.167 15.8334 28.5507 15.5816 28.0472 15.0781C27.5437 14.5747 27.292 13.9584 27.292 13.2292H15.8337C15.8337 13.9584 15.5819 14.5747 15.0785 15.0781C14.575 15.5816 13.9587 15.8334 13.2295 15.8334V21.0417C13.9587 21.0417 14.575 21.2934 15.0785 21.7969C15.5819 22.3004 15.8337 22.9167 15.8337 23.6459ZM28.3337 28.3334H10.1045C9.6748 28.3334 9.30697 28.1804 9.00098 27.8744C8.69499 27.5684 8.54199 27.2005 8.54199 26.7709V14.7917H10.1045V26.7709H28.3337V28.3334Z" fill="#5860DD"/>
</svg>
