<svg width="26" height="26" viewBox="0 0 26 26" fill="none" xmlns="http://www.w3.org/2000/svg">
<path d="M3.79199 22.75C3.35866 22.75 2.97949 22.5875 2.65449 22.2625C2.32949 21.9375 2.16699 21.5583 2.16699 21.125V8.12496C2.16699 7.69163 2.32949 7.31246 2.65449 6.98746C2.97949 6.66246 3.35866 6.49996 3.79199 6.49996H8.66699V3.79163C8.66699 3.35829 8.82949 2.97913 9.15449 2.65413C9.47949 2.32913 9.85866 2.16663 10.292 2.16663H15.7087C16.142 2.16663 16.5212 2.32913 16.8462 2.65413C17.1712 2.97913 17.3337 3.35829 17.3337 3.79163V6.49996H22.2087C22.642 6.49996 23.0212 6.66246 23.3462 6.98746C23.6712 7.31246 23.8337 7.69163 23.8337 8.12496V21.125C23.8337 21.5583 23.6712 21.9375 23.3462 22.2625C23.0212 22.5875 22.642 22.75 22.2087 22.75H3.79199ZM3.79199 21.125H22.2087V8.12496H3.79199V21.125ZM10.292 6.49996H15.7087V3.79163H10.292V6.49996Z" fill="#999898"/>
</svg>
