<svg width="40" height="40" viewBox="0 0 40 40" fill="none" xmlns="http://www.w3.org/2000/svg">
<rect width="40" height="40" rx="20" fill="#F9F9F9"/>
<path d="M11.5002 29C11.1002 29 10.7502 28.85 10.4502 28.55C10.1502 28.25 10.0002 27.9 10.0002 27.5V15.5C10.0002 15.1 10.1502 14.75 10.4502 14.45C10.7502 14.15 11.1002 14 11.5002 14H16.0002V11.5C16.0002 11.1 16.1502 10.75 16.4502 10.45C16.7502 10.15 17.1002 9.99997 17.5002 9.99997H22.5002C22.9002 9.99997 23.2502 10.15 23.5502 10.45C23.8502 10.75 24.0002 11.1 24.0002 11.5V14H28.5002C28.9002 14 29.2502 14.15 29.5502 14.45C29.8502 14.75 30.0002 15.1 30.0002 15.5V27.5C30.0002 27.9 29.8502 28.25 29.5502 28.55C29.2502 28.85 28.9002 29 28.5002 29H11.5002ZM11.5002 27.5H28.5002V15.5H11.5002V27.5ZM17.5002 14H22.5002V11.5H17.5002V14Z" fill="#5860DD"/>
</svg>
