<svg width="40" height="40" viewBox="0 0 40 40" fill="none" xmlns="http://www.w3.org/2000/svg">
<rect width="40" height="40" rx="20" fill="#F9F9F9"/>
<path d="M20.0026 19.7396C20.5046 19.7396 20.9335 19.5608 21.2894 19.2034C21.6453 18.846 21.8232 18.4163 21.8232 17.9143C21.8232 17.4124 21.6445 16.9835 21.2871 16.6276C20.9296 16.2717 20.5 16.0937 19.998 16.0937C19.4961 16.0937 19.0672 16.2725 18.7113 16.6299C18.3554 16.9873 18.1774 17.417 18.1774 17.919C18.1774 18.4209 18.3561 18.8498 18.7136 19.2057C19.071 19.5616 19.5007 19.7396 20.0026 19.7396ZM20.0003 28.3594C22.3094 26.2587 24.0151 24.3533 25.1175 22.6432C26.2199 20.9331 26.7712 19.4271 26.7712 18.125C26.7712 16.08 26.1176 14.4056 24.8104 13.1017C23.5033 11.7978 21.8999 11.1458 20.0003 11.1458C18.1007 11.1458 16.4974 11.7978 15.1902 13.1017C13.8831 14.4056 13.2295 16.08 13.2295 18.125C13.2295 19.4271 13.7937 20.9331 14.9222 22.6432C16.0507 24.3533 17.7434 26.2587 20.0003 28.3594ZM20.0003 30.4166C17.2052 28.0382 15.1175 25.829 13.7373 23.789C12.3571 21.7491 11.667 19.8611 11.667 18.125C11.667 15.5208 12.5047 13.4462 14.18 11.901C15.8554 10.3559 17.7955 9.58331 20.0003 9.58331C22.2052 9.58331 24.1453 10.3559 25.8206 11.901C27.496 13.4462 28.3337 15.5208 28.3337 18.125C28.3337 19.8611 27.6436 21.7491 26.2633 23.789C24.8831 25.829 22.7955 28.0382 20.0003 30.4166Z" fill="#5860DD"/>
</svg>
