<svg width="16" height="16" viewBox="0 0 16 16" fill="none" xmlns="http://www.w3.org/2000/svg">
<path d="M8.00181 7.83337C8.32304 7.83337 8.59755 7.71899 8.82533 7.49022C9.0531 7.26147 9.16699 6.98647 9.16699 6.66522C9.16699 6.34399 9.05261 6.06949 8.82384 5.84171C8.59509 5.61393 8.32009 5.50004 7.99884 5.50004C7.67761 5.50004 7.4031 5.61442 7.17533 5.84319C6.94755 6.07195 6.83366 6.34695 6.83366 6.66819C6.83366 6.98942 6.94804 7.26393 7.17681 7.49171C7.40556 7.71949 7.68056 7.83337 8.00181 7.83337ZM8.00033 13.35C9.4781 12.0056 10.5698 10.7862 11.2753 9.69171C11.9809 8.59726 12.3337 7.63337 12.3337 6.80004C12.3337 5.49126 11.9154 4.41962 11.0788 3.58512C10.2422 2.75062 9.21607 2.33337 8.00033 2.33337C6.78458 2.33337 5.75843 2.75062 4.92186 3.58512C4.08528 4.41962 3.66699 5.49126 3.66699 6.80004C3.66699 7.63337 4.0281 8.59726 4.75033 9.69171C5.47255 10.7862 6.55588 12.0056 8.00033 13.35ZM8.00033 14.6667C6.21144 13.1445 4.87533 11.7306 3.99199 10.425C3.10866 9.11949 2.66699 7.91115 2.66699 6.80004C2.66699 5.13337 3.2031 3.8056 4.27533 2.81671C5.34755 1.82782 6.58921 1.33337 8.00033 1.33337C9.41144 1.33337 10.6531 1.82782 11.7253 2.81671C12.7975 3.8056 13.3337 5.13337 13.3337 6.80004C13.3337 7.91115 12.892 9.11949 12.0087 10.425C11.1253 11.7306 9.78921 13.1445 8.00033 14.6667Z" fill="#656565"/>
</svg>
