<svg width="18" height="18" viewBox="0 0 18 18" fill="none" xmlns="http://www.w3.org/2000/svg">
<path d="M2.625 15C2.325 15 2.0625 14.8875 1.8375 14.6625C1.6125 14.4375 1.5 14.175 1.5 13.875V4.125C1.5 3.825 1.6125 3.5625 1.8375 3.3375C2.0625 3.1125 2.325 3 2.625 3H15.375C15.675 3 15.9375 3.1125 16.1625 3.3375C16.3875 3.5625 16.5 3.825 16.5 4.125V13.875C16.5 14.175 16.3875 14.4375 16.1625 14.6625C15.9375 14.8875 15.675 15 15.375 15H2.625ZM9 9.3375L2.625 5.15625V13.875H15.375V5.15625L9 9.3375ZM9 8.2125L15.3 4.125H2.71875L9 8.2125ZM2.625 5.15625V4.125V13.875V5.15625Z" fill="#030837"/>
</svg>
