<svg width="26" height="26" viewBox="0 0 26 26" fill="none" xmlns="http://www.w3.org/2000/svg">
<path d="M4.33301 20.5833V18.9583H6.60801V10.6708C6.60801 9.15413 7.05488 7.80447 7.94863 6.62183C8.84238 5.4392 10.0205 4.6944 11.483 4.38746V3.60204C11.483 3.18676 11.632 2.84371 11.9299 2.57288C12.2278 2.30204 12.5844 2.16663 12.9997 2.16663C13.415 2.16663 13.7716 2.30204 14.0695 2.57288C14.3674 2.84371 14.5163 3.18676 14.5163 3.60204V4.38746C15.9788 4.6944 17.1615 5.4392 18.0643 6.62183C18.967 7.80447 19.4184 9.15413 19.4184 10.6708V18.9583H21.6663V20.5833H4.33301ZM12.9997 23.8333C12.4219 23.8333 11.9163 23.6211 11.483 23.1968C11.0497 22.7725 10.833 22.2625 10.833 21.6666H15.1663C15.1663 22.2625 14.9542 22.7725 14.5299 23.1968C14.1056 23.6211 13.5955 23.8333 12.9997 23.8333ZM8.23301 18.9583H17.7934V10.6708C17.7934 9.33468 17.333 8.19718 16.4122 7.25829C15.4913 6.3194 14.3629 5.84996 13.0268 5.84996C11.6906 5.84996 10.5577 6.3194 9.6278 7.25829C8.69794 8.19718 8.23301 9.33468 8.23301 10.6708V18.9583Z" fill="#656565"/>
</svg>
