<svg width="15" height="15" viewBox="0 0 15 15" fill="none" xmlns="http://www.w3.org/2000/svg">
<path d="M3.125 11.8125V12.6562C3.125 12.7891 3.08008 12.9004 2.99023 12.9902C2.90039 13.0801 2.78906 13.125 2.65625 13.125H2.34375C2.21094 13.125 2.09961 13.0801 2.00977 12.9902C1.91992 12.9004 1.875 12.7891 1.875 12.6562V7.59375L3.20312 3.59375C3.25521 3.44792 3.34115 3.33333 3.46094 3.25C3.58073 3.16667 3.71875 3.125 3.875 3.125H11.125C11.2812 3.125 11.4193 3.16667 11.5391 3.25C11.6589 3.33333 11.7448 3.44792 11.7969 3.59375L13.125 7.59375V12.6562C13.125 12.7891 13.0801 12.9004 12.9902 12.9902C12.9004 13.0801 12.7891 13.125 12.6562 13.125H12.3281C12.1927 13.125 12.0833 13.0801 12 12.9902C11.9167 12.9004 11.875 12.7891 11.875 12.6562V11.8125H3.125ZM3.17188 6.65625H11.8281L10.9688 4.0625H4.03125L3.17188 6.65625ZM4.46508 10.0937C4.70711 10.0937 4.90885 10.0117 5.07031 9.84766C5.23177 9.68359 5.3125 9.48437 5.3125 9.25C5.3125 9.00695 5.23047 8.80035 5.06641 8.6302C4.90234 8.46007 4.70312 8.375 4.46875 8.375C4.2257 8.375 4.0191 8.45971 3.84895 8.62914C3.67882 8.79856 3.59375 9.00429 3.59375 9.24633C3.59375 9.48836 3.67846 9.6901 3.84789 9.85156C4.01731 10.013 4.22304 10.0937 4.46508 10.0937ZM10.5469 10.0937C10.7899 10.0937 10.9965 10.0117 11.1667 9.84766C11.3368 9.68359 11.4219 9.48437 11.4219 9.25C11.4219 9.00695 11.3372 8.80035 11.1677 8.6302C10.9983 8.46007 10.7926 8.375 10.5505 8.375C10.3085 8.375 10.1068 8.45971 9.94531 8.62914C9.78385 8.79856 9.70312 9.00429 9.70312 9.24633C9.70312 9.48836 9.78516 9.6901 9.94922 9.85156C10.1133 10.013 10.3125 10.0937 10.5469 10.0937ZM2.8125 10.875H12.1875V7.59375H2.8125V10.875Z" fill="#030837"/>
</svg>
