<svg width="18" height="18" viewBox="0 0 18 18" fill="none" xmlns="http://www.w3.org/2000/svg">
<path d="M4.125 16.5C3.81563 16.5 3.55078 16.3898 3.33047 16.1695C3.11016 15.9492 3 15.6844 3 15.375V7.2375C3 6.92813 3.11016 6.66328 3.33047 6.44297C3.55078 6.22266 3.81563 6.1125 4.125 6.1125H5.4375V4.3125C5.4375 3.32688 5.78504 2.48672 6.48011 1.79203C7.17519 1.09734 8.01581 0.75 9.00199 0.75C9.98816 0.75 10.8281 1.09734 11.5219 1.79203C12.2156 2.48672 12.5625 3.32688 12.5625 4.3125V6.1125H13.875C14.1844 6.1125 14.4492 6.22266 14.6695 6.44297C14.8898 6.66328 15 6.92813 15 7.2375V15.375C15 15.6844 14.8898 15.9492 14.6695 16.1695C14.4492 16.3898 14.1844 16.5 13.875 16.5H4.125ZM4.125 15.375H13.875V7.2375H4.125V15.375ZM9.00315 12.75C9.40105 12.75 9.74063 12.6123 10.0219 12.3369C10.3031 12.0615 10.4438 11.7305 10.4438 11.3438C10.4438 10.9688 10.3021 10.6281 10.0187 10.3219C9.73537 10.0156 9.39475 9.8625 8.99685 9.8625C8.59895 9.8625 8.25938 10.0156 7.97813 10.3219C7.69688 10.6281 7.55625 10.9719 7.55625 11.3531C7.55625 11.7344 7.69793 12.0625 7.98128 12.3375C8.26463 12.6125 8.60525 12.75 9.00315 12.75ZM6.5625 6.1125H11.4375V4.3125C11.4375 3.63541 11.2007 3.05989 10.7272 2.58594C10.2537 2.11198 9.67868 1.875 9.00221 1.875C8.32574 1.875 7.75 2.11198 7.275 2.58594C6.8 3.05989 6.5625 3.63541 6.5625 4.3125V6.1125Z" fill="#656565"/>
</svg>
