<svg width="30" height="30" viewBox="0 0 30 30" fill="none" xmlns="http://www.w3.org/2000/svg">
<path d="M16.4 21L11.8333 16.2667V15.1667H14C14.6333 15.1667 15.1889 14.9611 15.6667 14.55C16.1444 14.1389 16.4222 13.5667 16.5 12.8333H11V11.8333H16.4167C16.2722 11.3 15.975 10.8611 15.525 10.5167C15.075 10.1722 14.5667 10 14 10H11V9H19V10H16.4333C16.6889 10.2222 16.9056 10.5056 17.0833 10.85C17.2611 11.1944 17.3889 11.5222 17.4667 11.8333H19V12.8333H17.5C17.4111 13.8444 17.0361 14.6528 16.375 15.2583C15.7139 15.8639 14.9222 16.1667 14 16.1667H13.1333L17.7833 21H16.4Z" fill="#030837"/>
<circle cx="15" cy="15" r="15" fill="#030837" fill-opacity="0.1"/>
</svg>
