<svg width="18" height="18" viewBox="0 0 18 18" fill="none" xmlns="http://www.w3.org/2000/svg">
<path d="M9 8.9812C8.175 8.9812 7.5 8.7187 6.975 8.1937C6.45 7.6687 6.1875 6.9937 6.1875 6.1687C6.1875 5.3437 6.45 4.6687 6.975 4.1437C7.5 3.6187 8.175 3.3562 9 3.3562C9.825 3.3562 10.5 3.6187 11.025 4.1437C11.55 4.6687 11.8125 5.3437 11.8125 6.1687C11.8125 6.9937 11.55 7.6687 11.025 8.1937C10.5 8.7187 9.825 8.9812 9 8.9812ZM3 15V13.2375C3 12.7625 3.11875 12.3562 3.35625 12.0187C3.59375 11.6812 3.9 11.425 4.275 11.25C5.1125 10.875 5.91563 10.5937 6.68438 10.4062C7.45313 10.2187 8.225 10.125 9 10.125C9.775 10.125 10.5438 10.2218 11.3063 10.4156C12.0688 10.6093 12.8683 10.8887 13.7048 11.2536C14.096 11.4302 14.4097 11.6862 14.6458 12.0217C14.8819 12.3572 15 12.7625 15 13.2375V15H3ZM4.125 13.875H13.875V13.2375C13.875 13.0375 13.8156 12.8468 13.6969 12.6656C13.5781 12.4843 13.4313 12.35 13.2563 12.2625C12.4563 11.875 11.725 11.6093 11.0625 11.4656C10.4 11.3218 9.7125 11.25 9 11.25C8.2875 11.25 7.59375 11.3218 6.91875 11.4656C6.24375 11.6093 5.5125 11.875 4.725 12.2625C4.55 12.35 4.40625 12.4843 4.29375 12.6656C4.18125 12.8468 4.125 13.0375 4.125 13.2375V13.875ZM9 7.8562C9.4875 7.8562 9.89063 7.69683 10.2094 7.37808C10.5281 7.05933 10.6875 6.6562 10.6875 6.1687C10.6875 5.6812 10.5281 5.27808 10.2094 4.95933C9.89063 4.64058 9.4875 4.4812 9 4.4812C8.5125 4.4812 8.10938 4.64058 7.79063 4.95933C7.47188 5.27808 7.3125 5.6812 7.3125 6.1687C7.3125 6.6562 7.47188 7.05933 7.79063 7.37808C8.10938 7.69683 8.5125 7.8562 9 7.8562Z" fill="black"/>
</svg>
