<svg width="26" height="26" viewBox="0 0 26 26" fill="none" xmlns="http://www.w3.org/2000/svg">
<path d="M6.01283 19.0937C7.15033 18.2993 8.2788 17.6899 9.39824 17.2656C10.5177 16.8413 11.7184 16.6291 13.0003 16.6291C14.2823 16.6291 15.4875 16.8413 16.616 17.2656C17.7444 17.6899 18.8774 18.2993 20.0149 19.0937C20.8094 18.1187 21.3736 17.1347 21.7076 16.1416C22.0416 15.1486 22.2087 14.1013 22.2087 13C22.2087 10.3819 21.3285 8.19267 19.568 6.43225C17.8076 4.67183 15.6184 3.79163 13.0003 3.79163C10.3823 3.79163 8.19303 4.67183 6.43262 6.43225C4.6722 8.19267 3.79199 10.3819 3.79199 13C3.79199 14.1013 3.96352 15.1486 4.30658 16.1416C4.64963 17.1347 5.21838 18.1187 6.01283 19.0937ZM12.9953 13.8125C11.9514 13.8125 11.0729 13.4542 10.3597 12.7376C9.64651 12.0211 9.28991 11.1409 9.28991 10.097C9.28991 9.05314 9.64819 8.17461 10.3647 7.46142C11.0813 6.74822 11.9615 6.39163 13.0054 6.39163C14.0492 6.39163 14.9278 6.7499 15.641 7.46646C16.3541 8.18301 16.7107 9.06322 16.7107 10.1071C16.7107 11.1509 16.3525 12.0295 15.6359 12.7427C14.9194 13.4559 14.0392 13.8125 12.9953 13.8125ZM13.013 23.8333C11.524 23.8333 10.1205 23.5489 8.80241 22.9802C7.48435 22.4114 6.33331 21.635 5.34928 20.651C4.36526 19.667 3.58887 18.518 3.02012 17.2042C2.45137 15.8904 2.16699 14.4866 2.16699 12.9928C2.16699 11.4989 2.45137 10.0975 3.02012 8.7885C3.58887 7.47947 4.36526 6.33295 5.34928 5.34892C6.33331 4.36489 7.48224 3.5885 8.79607 3.01975C10.1099 2.451 11.5137 2.16663 13.0075 2.16663C14.5013 2.16663 15.9028 2.451 17.2118 3.01975C18.5208 3.5885 19.6673 4.36489 20.6514 5.34892C21.6354 6.33295 22.4118 7.47976 22.9805 8.78937C23.5493 10.099 23.8337 11.4983 23.8337 12.9873C23.8337 14.4763 23.5493 15.8798 22.9805 17.1979C22.4118 18.5159 21.6354 19.667 20.6514 20.651C19.6673 21.635 18.5205 22.4114 17.2109 22.9802C15.9013 23.5489 14.502 23.8333 13.013 23.8333ZM13.0003 22.2083C13.9934 22.2083 14.9639 22.0639 15.9118 21.775C16.8597 21.4861 17.7941 20.9805 18.7149 20.2583C17.7941 19.6083 16.8552 19.1118 15.8982 18.7687C14.9413 18.4257 13.9753 18.2541 13.0003 18.2541C12.0253 18.2541 11.0594 18.4257 10.1024 18.7687C9.14547 19.1118 8.20658 19.6083 7.28574 20.2583C8.20658 20.9805 9.14095 21.4861 10.0889 21.775C11.0368 22.0639 12.0073 22.2083 13.0003 22.2083ZM13.0003 12.1875C13.6142 12.1875 14.1153 11.9934 14.5035 11.6052C14.8916 11.217 15.0857 10.7159 15.0857 10.102C15.0857 9.48815 14.8916 8.98711 14.5035 8.59892C14.1153 8.21072 13.6142 8.01663 13.0003 8.01663C12.3864 8.01663 11.8854 8.21072 11.4972 8.59892C11.109 8.98711 10.9149 9.48815 10.9149 10.102C10.9149 10.7159 11.109 11.217 11.4972 11.6052C11.8854 11.9934 12.3864 12.1875 13.0003 12.1875Z" fill="#999898"/>
</svg>
