<svg width="19" height="19" viewBox="0 0 19 19" fill="none" xmlns="http://www.w3.org/2000/svg">
<path d="M1.6875 18.875C1.27083 18.875 0.90625 18.7188 0.59375 18.4062C0.28125 18.0938 0.125 17.7292 0.125 17.3125V1.6875C0.125 1.27083 0.28125 0.90625 0.59375 0.59375C0.90625 0.28125 1.27083 0.125 1.6875 0.125H17.3125C17.7292 0.125 18.0938 0.28125 18.4062 0.59375C18.7188 0.90625 18.875 1.27083 18.875 1.6875V17.3125C18.875 17.7292 18.7188 18.0938 18.4062 18.4062C18.0938 18.7188 17.7292 18.875 17.3125 18.875H1.6875ZM1.6875 17.3125H17.3125V1.6875H1.6875V17.3125ZM3.14583 14.7865H15.8802L12.0521 9.68229L8.61458 14.1354L6.19271 10.8281L3.14583 14.7865Z" fill="black"/>
</svg>
