<svg width="25" height="25" viewBox="0 0 25 25" fill="none" xmlns="http://www.w3.org/2000/svg">
<path d="M8.30762 18.4896H16.693V16.9271H8.30762V18.4896ZM8.30762 14.0625H16.693V12.5H8.30762V14.0625ZM5.72949 22.9166C5.31283 22.9166 4.94824 22.7604 4.63574 22.4479C4.32324 22.1354 4.16699 21.7708 4.16699 21.3541V3.64581C4.16699 3.22915 4.32324 2.86456 4.63574 2.55206C4.94824 2.23956 5.31283 2.08331 5.72949 2.08331H15.1305L20.8337 7.78644V21.3541C20.8337 21.7708 20.6774 22.1354 20.3649 22.4479C20.0524 22.7604 19.6878 22.9166 19.2712 22.9166H5.72949ZM14.3493 8.48956V3.64581H5.72949V21.3541H19.2712V8.48956H14.3493Z" fill="#999898"/>
</svg>
