<svg width="10" height="14" viewBox="0 0 10 14" fill="none" xmlns="http://www.w3.org/2000/svg">
<path d="M6.575 13.75L1.4375 8.425V7.1875H3.875C4.5875 7.1875 5.2125 6.95625 5.75 6.49375C6.2875 6.03125 6.6 5.3875 6.6875 4.5625H0.5V3.4375H6.59375C6.43125 2.8375 6.09688 2.34375 5.59063 1.95625C5.08438 1.56875 4.5125 1.375 3.875 1.375H0.5V0.25H9.5V1.375H6.6125C6.9 1.625 7.14375 1.94375 7.34375 2.33125C7.54375 2.71875 7.6875 3.0875 7.775 3.4375H9.5V4.5625H7.8125C7.7125 5.7 7.29063 6.60938 6.54688 7.29063C5.80313 7.97188 4.9125 8.3125 3.875 8.3125H2.9L8.13125 13.75H6.575Z" fill="#656565"/>
</svg>
