<svg width="25" height="25" viewBox="0 0 25 25" fill="none" xmlns="http://www.w3.org/2000/svg">
<path d="M10.1038 22.9166L9.58301 19.6354C9.25315 19.5139 8.90592 19.3489 8.54134 19.1406C8.17676 18.9323 7.85558 18.7153 7.5778 18.4896L4.50488 19.8958L2.08301 15.625L4.89551 13.5677C4.86079 13.4114 4.83908 13.2335 4.8304 13.0338C4.82172 12.8342 4.81738 12.6562 4.81738 12.5C4.81738 12.3437 4.82172 12.1658 4.8304 11.9661C4.83908 11.7665 4.86079 11.5885 4.89551 11.4323L2.08301 9.37498L4.50488 5.10415L7.5778 6.5104C7.85558 6.2847 8.17676 6.06769 8.54134 5.85935C8.90592 5.65102 9.25315 5.49477 9.58301 5.3906L10.1038 2.08331H14.8955L15.4163 5.36456C15.7462 5.48609 16.0978 5.64668 16.471 5.84633C16.8443 6.04599 17.1611 6.26734 17.4215 6.5104L20.4945 5.10415L22.9163 9.37498L20.1038 11.3802C20.1386 11.5538 20.1603 11.7404 20.1689 11.9401C20.1776 12.1397 20.182 12.3264 20.182 12.5C20.182 12.6736 20.1776 12.8559 20.1689 13.0469C20.1603 13.2378 20.1386 13.4201 20.1038 13.5937L22.9163 15.625L20.4945 19.8958L17.4215 18.4896C17.1438 18.7153 16.8269 18.9366 16.471 19.1536C16.1151 19.3706 15.7636 19.5312 15.4163 19.6354L14.8955 22.9166H10.1038ZM12.4997 15.8854C13.4372 15.8854 14.2358 15.5555 14.8955 14.8958C15.5552 14.2361 15.8851 13.4375 15.8851 12.5C15.8851 11.5625 15.5552 10.7639 14.8955 10.1041C14.2358 9.44442 13.4372 9.11456 12.4997 9.11456C11.5622 9.11456 10.7636 9.44442 10.1038 10.1041C9.44412 10.7639 9.11426 11.5625 9.11426 12.5C9.11426 13.4375 9.44412 14.2361 10.1038 14.8958C10.7636 15.5555 11.5622 15.8854 12.4997 15.8854ZM12.4997 14.3229C11.9962 14.3229 11.5665 14.1449 11.2106 13.789C10.8547 13.4331 10.6768 13.0035 10.6768 12.5C10.6768 11.9965 10.8547 11.5668 11.2106 11.2109C11.5665 10.855 11.9962 10.6771 12.4997 10.6771C13.0031 10.6771 13.4328 10.855 13.7887 11.2109C14.1446 11.5668 14.3226 11.9965 14.3226 12.5C14.3226 13.0035 14.1446 13.4331 13.7887 13.789C13.4328 14.1449 13.0031 14.3229 12.4997 14.3229ZM11.3538 21.3541H13.6455L14.0101 18.4375C14.583 18.2986 15.1255 18.0816 15.6377 17.7864C16.1498 17.4913 16.6143 17.1354 17.0309 16.7187L19.7913 17.9166L20.833 16.0416L18.3851 14.2448C18.4545 13.9496 18.511 13.6588 18.5544 13.3724C18.5978 13.0859 18.6195 12.7951 18.6195 12.5C18.6195 12.2048 18.6021 11.914 18.5674 11.6276C18.5327 11.3411 18.4719 11.0503 18.3851 10.7552L20.833 8.95831L19.7913 7.08331L17.0309 8.28123C16.6316 7.82984 16.1802 7.45224 15.6768 7.14842C15.1733 6.8446 14.6177 6.64928 14.0101 6.56248L13.6455 3.64581H11.3538L10.9893 6.56248C10.399 6.68401 9.84776 6.89234 9.33561 7.18748C8.82346 7.48262 8.36773 7.8472 7.96842 8.28123L5.20801 7.08331L4.16634 8.95831L6.61426 10.7552C6.54481 11.0503 6.48839 11.3411 6.44499 11.6276C6.40158 11.914 6.37988 12.2048 6.37988 12.5C6.37988 12.7951 6.40158 13.0859 6.44499 13.3724C6.48839 13.6588 6.54481 13.9496 6.61426 14.2448L4.16634 16.0416L5.20801 17.9166L7.96842 16.7187C8.38509 17.1354 8.8495 17.4913 9.36165 17.7864C9.87381 18.0816 10.4163 18.2986 10.9893 18.4375L11.3538 21.3541Z" fill="#999898"/>
</svg>
