<svg width="25" height="25" viewBox="0 0 25 25" fill="none" xmlns="http://www.w3.org/2000/svg">
<path d="M6.25 22.9166V18.4375C5.26042 17.5347 4.49219 16.48 3.94531 15.2734C3.39844 14.0668 3.125 12.7951 3.125 11.4583C3.125 8.85415 4.03646 6.6406 5.85938 4.81769C7.68229 2.99477 9.89583 2.08331 12.5 2.08331C14.6701 2.08331 16.5929 2.72133 18.2682 3.99738C19.9436 5.27342 21.033 6.93574 21.5365 8.98435L22.9688 14.6614C23.0382 14.9045 22.9948 15.1258 22.8385 15.3255C22.6823 15.5252 22.474 15.625 22.2135 15.625H19.7917V19.2708C19.7917 19.7005 19.6387 20.0683 19.3327 20.3743C19.0267 20.6803 18.6589 20.8333 18.2292 20.8333H15.625V22.9166H14.0625V19.2708H18.2292V14.0625H21.1979L20.026 9.37498C19.6094 7.69095 18.6979 6.31508 17.2917 5.24738C15.8854 4.17967 14.2882 3.64581 12.5 3.64581C10.3299 3.64581 8.48524 4.39668 6.96615 5.89842C5.44705 7.40015 4.6875 9.2321 4.6875 11.3942C4.6875 12.5126 4.91601 13.575 5.37302 14.5815C5.83005 15.5881 6.47828 16.4828 7.31771 17.2656L7.8125 17.7344V22.9166H6.25ZM11.6927 15.2604H13.2552L13.3333 14.1146C13.5417 14.0798 13.7367 14.0064 13.9185 13.8942C14.1003 13.782 14.2612 13.6558 14.401 13.5156L15.4948 13.8802L16.224 12.6302L15.4427 12.0052C15.5295 11.7621 15.5729 11.5104 15.5729 11.25C15.5729 10.9896 15.5295 10.7378 15.4427 10.4948L16.224 9.86977L15.4948 8.61977L14.401 8.98435C14.2564 8.85081 14.09 8.73062 13.9019 8.62378C13.7138 8.51694 13.5243 8.43748 13.3333 8.3854L13.2552 7.23956H11.6927L11.6146 8.3854C11.4236 8.43748 11.2341 8.51694 11.046 8.62378C10.8579 8.73062 10.6915 8.85081 10.5469 8.98435L9.45313 8.61977L8.72396 9.86977L9.50521 10.4948C9.4184 10.7378 9.375 10.9896 9.375 11.25C9.375 11.5104 9.4184 11.7621 9.50521 12.0052L8.72396 12.6302L9.45313 13.8802L10.5469 13.5156C10.6867 13.6558 10.8476 13.782 11.0294 13.8942C11.2112 14.0064 11.4062 14.0798 11.6146 14.1146L11.6927 15.2604ZM12.477 13.0729C11.9715 13.0729 11.5408 12.896 11.1849 12.5421C10.829 12.1882 10.651 11.7586 10.651 11.2531C10.651 10.7475 10.828 10.3168 11.1818 9.96092C11.5357 9.60501 11.9654 9.42706 12.4709 9.42706C12.9764 9.42706 13.4071 9.60399 13.763 9.95784C14.1189 10.3117 14.2969 10.7414 14.2969 11.2469C14.2969 11.7524 14.1199 12.1831 13.7661 12.539C13.4122 12.8949 12.9825 13.0729 12.477 13.0729Z" fill="#B0B0B0"/>
</svg>
