<svg width="30" height="31" viewBox="0 0 30 31" fill="none" xmlns="http://www.w3.org/2000/svg">
<circle cx="15" cy="15.5" r="15" fill="#E3A008" fill-opacity="0.1"/>
<path d="M10.7708 19.1875H16.5V17.9375H10.7708V19.1875ZM10.7708 15.625H19.2292V14.375H10.7708V15.625ZM10.7708 12.0625H19.2292V10.8125H10.7708V12.0625ZM8.75 22.5C8.41667 22.5 8.125 22.375 7.875 22.125C7.625 21.875 7.5 21.5833 7.5 21.25V8.75C7.5 8.41667 7.625 8.125 7.875 7.875C8.125 7.625 8.41667 7.5 8.75 7.5H21.25C21.5833 7.5 21.875 7.625 22.125 7.875C22.375 8.125 22.5 8.41667 22.5 8.75V21.25C22.5 21.5833 22.375 21.875 22.125 22.125C21.875 22.375 21.5833 22.5 21.25 22.5H8.75ZM8.75 21.25H21.25V8.75H8.75V21.25Z" fill="#E3A008"/>
</svg>
