<svg width="40" height="40" viewBox="0 0 40 40" fill="none" xmlns="http://www.w3.org/2000/svg">
<rect width="40" height="40" rx="20" fill="#F9F9F9"/>
<path d="M23.8278 25.026L24.9997 23.8541L20.859 19.6875V14.4531H19.2965V20.3125L23.8278 25.026ZM19.9997 30.4166C18.5761 30.4166 17.2306 30.1432 15.9632 29.5963C14.6959 29.0495 13.5891 28.3029 12.6429 27.3568C11.6967 26.4106 10.9502 25.3038 10.4033 24.0364C9.85645 22.7691 9.58301 21.4236 9.58301 20C9.58301 18.5764 9.85645 17.2309 10.4033 15.9635C10.9502 14.6962 11.6967 13.5894 12.6429 12.6432C13.5891 11.697 14.6959 10.9505 15.9632 10.4036C17.2306 9.85675 18.5761 9.58331 19.9997 9.58331C21.4233 9.58331 22.7688 9.85675 24.0361 10.4036C25.3035 10.9505 26.4103 11.697 27.3564 12.6432C28.3026 13.5894 29.0492 14.6962 29.596 15.9635C30.1429 17.2309 30.4163 18.5764 30.4163 20C30.4163 21.4236 30.1429 22.7691 29.596 24.0364C29.0492 25.3038 28.3026 26.4106 27.3564 27.3568C26.4103 28.3029 25.3035 29.0495 24.0361 29.5963C22.7688 30.1432 21.4233 30.4166 19.9997 30.4166ZM19.9997 28.8541C22.4302 28.8541 24.5136 27.9861 26.2497 26.25C27.9858 24.5139 28.8538 22.4305 28.8538 20C28.8538 17.5694 27.9858 15.4861 26.2497 13.75C24.5136 12.0139 22.4302 11.1458 19.9997 11.1458C17.5691 11.1458 15.4858 12.0139 13.7497 13.75C12.0136 15.4861 11.1455 17.5694 11.1455 20C11.1455 22.4305 12.0136 24.5139 13.7497 26.25C15.4858 27.9861 17.5691 28.8541 19.9997 28.8541Z" fill="#5860DD"/>
</svg>
