<svg width="15" height="15" viewBox="0 0 15 15" fill="none" xmlns="http://www.w3.org/2000/svg">
<path d="M0.59375 12.5V11.0312C0.59375 10.6667 0.6875 10.3359 0.875 10.0391C1.0625 9.74219 1.32292 9.52083 1.65625 9.375C2.41667 9.04167 3.10156 8.80208 3.71094 8.65625C4.32031 8.51042 4.94792 8.4375 5.59375 8.4375C6.23958 8.4375 6.86458 8.51042 7.46875 8.65625C8.07292 8.80208 8.75521 9.04167 9.51563 9.375C9.84896 9.52083 10.112 9.74219 10.3047 10.0391C10.4974 10.3359 10.5938 10.6667 10.5938 11.0312V12.5H0.59375ZM11.5313 12.5V11.0312C11.5313 10.375 11.3646 9.83594 11.0313 9.41406C10.6979 8.99219 10.2604 8.65104 9.71875 8.39062C10.4375 8.47396 11.1146 8.59635 11.75 8.75781C12.3854 8.91927 12.901 9.10417 13.2969 9.3125C13.6406 9.51042 13.9115 9.75521 14.1094 10.0469C14.3073 10.3385 14.4063 10.6667 14.4063 11.0312V12.5H11.5313ZM5.59375 7.48438C4.90625 7.48438 4.34375 7.26562 3.90625 6.82812C3.46875 6.39062 3.25 5.82812 3.25 5.14062C3.25 4.45312 3.46875 3.89062 3.90625 3.45312C4.34375 3.01562 4.90625 2.79688 5.59375 2.79688C6.28125 2.79688 6.84375 3.01562 7.28125 3.45312C7.71875 3.89062 7.9375 4.45312 7.9375 5.14062C7.9375 5.82812 7.71875 6.39062 7.28125 6.82812C6.84375 7.26562 6.28125 7.48438 5.59375 7.48438ZM11.2188 5.14062C11.2188 5.82812 11 6.39062 10.5625 6.82812C10.125 7.26562 9.5625 7.48438 8.875 7.48438C8.76042 7.48438 8.63281 7.47656 8.49219 7.46094C8.35156 7.44531 8.22396 7.41667 8.10938 7.375C8.35938 7.11458 8.54948 6.79427 8.67969 6.41406C8.8099 6.03385 8.875 5.60938 8.875 5.14062C8.875 4.67188 8.8099 4.25781 8.67969 3.89844C8.54948 3.53906 8.35938 3.20833 8.10938 2.90625C8.22396 2.875 8.35156 2.84896 8.49219 2.82812C8.63281 2.80729 8.76042 2.79688 8.875 2.79688C9.5625 2.79688 10.125 3.01562 10.5625 3.45312C11 3.89062 11.2188 4.45312 11.2188 5.14062ZM1.53125 11.5625H9.65625V11.0312C9.65625 10.8646 9.60677 10.7031 9.50781 10.5469C9.40886 10.3906 9.28646 10.2812 9.14063 10.2188C8.39063 9.88542 7.76042 9.66146 7.25 9.54688C6.73958 9.43229 6.1875 9.375 5.59375 9.375C5 9.375 4.44531 9.43229 3.92969 9.54688C3.41406 9.66146 2.78125 9.88542 2.03125 10.2188C1.88542 10.2812 1.76563 10.3906 1.67188 10.5469C1.57813 10.7031 1.53125 10.8646 1.53125 11.0312V11.5625ZM5.59375 6.54688C6 6.54688 6.33594 6.41406 6.60156 6.14844C6.86719 5.88281 7 5.54688 7 5.14062C7 4.73438 6.86719 4.39844 6.60156 4.13281C6.33594 3.86719 6 3.73438 5.59375 3.73438C5.1875 3.73438 4.85156 3.86719 4.58594 4.13281C4.32031 4.39844 4.1875 4.73438 4.1875 5.14062C4.1875 5.54688 4.32031 5.88281 4.58594 6.14844C4.85156 6.41406 5.1875 6.54688 5.59375 6.54688Z" fill="#030837"/>
</svg>
