<svg width="30" height="30" viewBox="0 0 30 30" fill="none" xmlns="http://www.w3.org/2000/svg">
<path d="M14.0163 18.0334L18.733 13.3167L17.9663 12.5667L14.0163 16.5167L12.0163 14.5167L11.2663 15.2667L14.0163 18.0334ZM14.9997 21.6667C14.0886 21.6667 13.2275 21.4917 12.4163 21.1417C11.6052 20.7917 10.8969 20.3139 10.2913 19.7084C9.68579 19.1028 9.20801 18.3945 8.85801 17.5834C8.50801 16.7723 8.33301 15.9112 8.33301 15C8.33301 14.0778 8.50801 13.2112 8.85801 12.4C9.20801 11.5889 9.68579 10.8834 10.2913 10.2834C10.8969 9.68337 11.6052 9.20837 12.4163 8.85837C13.2275 8.50837 14.0886 8.33337 14.9997 8.33337C15.9219 8.33337 16.7886 8.50837 17.5997 8.85837C18.4108 9.20837 19.1163 9.68337 19.7163 10.2834C20.3163 10.8834 20.7913 11.5889 21.1413 12.4C21.4913 13.2112 21.6663 14.0778 21.6663 15C21.6663 15.9112 21.4913 16.7723 21.1413 17.5834C20.7913 18.3945 20.3163 19.1028 19.7163 19.7084C19.1163 20.3139 18.4108 20.7917 17.5997 21.1417C16.7886 21.4917 15.9219 21.6667 14.9997 21.6667ZM14.9997 20.6667C16.5775 20.6667 17.9163 20.1139 19.0163 19.0084C20.1163 17.9028 20.6663 16.5667 20.6663 15C20.6663 13.4223 20.1163 12.0834 19.0163 10.9834C17.9163 9.88337 16.5775 9.33337 14.9997 9.33337C13.433 9.33337 12.0969 9.88337 10.9913 10.9834C9.88579 12.0834 9.33301 13.4223 9.33301 15C9.33301 16.5667 9.88579 17.9028 10.9913 19.0084C12.0969 20.1139 13.433 20.6667 14.9997 20.6667Z" fill="#198754"/>
<circle cx="15" cy="15" r="15" fill="#057A55" fill-opacity="0.1"/>
</svg>
